<svg width="51" height="50" viewBox="0 0 51 50" fill="none" xmlns="http://www.w3.org/2000/svg">
<path fill-rule="evenodd" clip-rule="evenodd" d="M6.21484 9.34993V32.0764C6.21484 33.2956 7.2054 34.2861 8.42454 34.2861H41.1518C42.371 34.2861 43.3615 33.2956 43.3615 32.0764V9.34993C43.3615 8.13079 42.371 7.14023 41.1518 7.14023H8.42454C7.2054 7.14023 6.21484 8.13079 6.21484 9.34993V9.34993Z" stroke="black" stroke-width="1.6" stroke-miterlimit="79.8403"/>
<path d="M16.5496 37.1437L14.0742 42.8584" stroke="black" stroke-width="1.6" stroke-miterlimit="79.8403" stroke-linecap="round" stroke-linejoin="round"/>
<path d="M32.5938 37.1437L35.0692 42.8584" stroke="black" stroke-width="1.6" stroke-miterlimit="79.8403" stroke-linecap="round" stroke-linejoin="round"/>
<path d="M24.7852 37.1437L24.7861 42.8584" stroke="black" stroke-width="1.6" stroke-miterlimit="79.8403" stroke-linecap="round" stroke-linejoin="round"/>
<path fill-rule="evenodd" clip-rule="evenodd" d="M16.2182 24.2843C17.4011 24.2843 18.3622 25.2443 18.3622 26.4273C18.3622 27.6102 17.4011 28.5703 16.2182 28.5703C15.0352 28.5703 14.0742 27.6102 14.0742 26.4273C14.0742 25.2443 15.0352 24.2843 16.2182 24.2843Z" stroke="black" stroke-width="1.6" stroke-miterlimit="79.8403"/>
<path d="M18.3594 26.4277C25.259 25.841 30.5032 22.856 31.9318 12.8553" stroke="black" stroke-width="1.6" stroke-miterlimit="79.8403" stroke-linecap="round" stroke-linejoin="round"/>
<path d="M29.1836 14.9986L31.9324 12.8555L33.9944 15.7129" stroke="black" stroke-width="1.6" stroke-miterlimit="79.8403" stroke-linecap="round" stroke-linejoin="round"/>
<path d="M20.5053 13.5679L16.9336 17.1396" stroke="black" stroke-width="1.6" stroke-miterlimit="79.8403" stroke-linecap="round" stroke-linejoin="round"/>
<path d="M20.5053 17.1396L16.9336 13.5679" stroke="black" stroke-width="1.6" stroke-miterlimit="79.8403" stroke-linecap="round" stroke-linejoin="round"/>
<path fill-rule="evenodd" clip-rule="evenodd" d="M31.7868 25.0001C32.7726 25.0001 33.5736 25.8001 33.5736 26.7859C33.5736 27.7717 32.7726 28.5718 31.7868 28.5718C30.801 28.5718 30 27.7717 30 26.7859C30 25.8001 30.801 25.0001 31.7868 25.0001Z" stroke="black" stroke-width="1.6" stroke-miterlimit="79.8403"/>
</svg>
