<svg width="46" height="46" viewBox="0 0 46 46" fill="none" xmlns="http://www.w3.org/2000/svg">
<path fill-rule="evenodd" clip-rule="evenodd" d="M31.2114 11.8291C29.2164 11.8291 27.5972 10.21 27.5972 8.21494C27.5972 6.21992 29.2164 4.60078 31.2114 4.60078C33.2064 4.60078 34.8256 6.21992 34.8256 8.21494C34.8256 10.21 33.2064 11.8291 31.2114 11.8291Z" stroke="black" stroke-width="1.6" stroke-miterlimit="79.8403"/>
<path d="M9.80145 24.3413L15.7699 24.3168" stroke="black" stroke-width="1.6" stroke-miterlimit="79.8403" stroke-linecap="round" stroke-linejoin="round"/>
<path d="M16.2989 17.0931C14.6483 18.7745 14.4143 20.6223 15.1117 22.3448L18.202 28.0013L9.20728 29.4592C7.2587 29.4592 7.67489 32.3848 9.17576 32.3848L20.9216 32.3436C22.9578 32.0176 23.7016 31.3614 23.4686 29.3042L21.1467 21.5615L25.3873 18.4267L32.4317 23.2105L39.4962 22.5148C41.2975 22.5271 41.3685 19.7163 39.4252 19.7163H33.5111L21.0258 7.88818C20.2303 7.32569 19.3655 7.05671 18.3973 7.23106L11.0428 9.65101C9.31154 10.2696 9.67341 12.8 11.9278 12.3426L18.4131 11.1571" stroke="black" stroke-width="1.6" stroke-miterlimit="79.8403" stroke-linecap="round" stroke-linejoin="round"/>
<path d="M22.6414 31.809L13.6564 40.4339C12.2896 41.36 10.9814 40.3227 11.275 38.75L14.9706 34.4375" stroke="black" stroke-width="1.6" stroke-miterlimit="79.8403" stroke-linecap="round" stroke-linejoin="round"/>
<path d="M14.6312 19.7168H5.91254" stroke="black" stroke-width="1.6" stroke-miterlimit="79.8403" stroke-linecap="round" stroke-linejoin="round"/>
<path d="M3.94171 15.1162H18.3984L20.7035 13.3876L18.4141 11.1568" stroke="black" stroke-width="1.6" stroke-miterlimit="79.8403" stroke-linecap="round" stroke-linejoin="round"/>
</svg>
