<svg width="51" height="51" viewBox="0 0 51 51" fill="none" xmlns="http://www.w3.org/2000/svg">
<path d="M39.6337 20.2165V39.6293C39.6337 41.5324 38.5873 42.4753 36.7877 42.4753H14.0195C12.2198 42.4753 11.1734 41.5324 11.1734 39.6293V11.8805C11.1734 10.0676 12.2293 9.03451 14.0195 9.03451H19.7115C20.6659 7.76518 22.4001 6.18848 24.6921 6.18848H26.1151C28.7154 6.18848 30.1413 7.76518 31.0956 9.03451H36.7877C38.5778 9.03451 39.6337 10.0676 39.6337 11.8805V15.9475" stroke="black" stroke-width="1.6" stroke-miterlimit="79.8403" stroke-linecap="round" stroke-linejoin="round"/>
<path d="M21.1332 11.8813V12.5928C21.1635 14.0281 22.0553 14.7273 23.2677 14.7273H25.4022" stroke="black" stroke-width="1.6" stroke-miterlimit="79.8403" stroke-linecap="round" stroke-linejoin="round"/>
<path d="M29.672 11.8813V12.5928C29.6416 14.0281 28.7499 14.7273 27.5374 14.7273H25.4029" stroke="black" stroke-width="1.6" stroke-miterlimit="79.8403" stroke-linecap="round" stroke-linejoin="round"/>
<path d="M18.9166 25.022L23.9853 30.6372L32.5737 22.5943" stroke="black" stroke-width="1.6" stroke-miterlimit="79.8403" stroke-linecap="round" stroke-linejoin="round"/>
</svg>
