<svg width="53" height="52" viewBox="0 0 53 52" fill="none" xmlns="http://www.w3.org/2000/svg">
<path d="M26.8282 12.8403C28.735 10.4472 32.4158 8.91185 35.7113 8.91185C41.4524 8.91185 45.369 14.3142 45.369 20.0553C45.4096 20.8299 45.4007 21.5936 45.3432 22.3464" stroke="black" stroke-width="1.6" stroke-miterlimit="79.8403" stroke-linecap="round" stroke-linejoin="round"/>
<path d="M43.9189 28.0722C41.3237 34.0442 35.3983 39.2454 26.8015 43.8267" stroke="black" stroke-width="1.6" stroke-miterlimit="79.8403" stroke-linecap="round" stroke-linejoin="round"/>
<path d="M4.51562 25.2578H18.6307L23.831 17.0859L29.0313 34.1726L34.9745 25.2578H49.0896" stroke="black" stroke-width="1.6" stroke-miterlimit="79.8403" stroke-linecap="round" stroke-linejoin="round"/>
<path d="M26.7658 12.8403C24.8591 10.4472 21.1783 8.91185 17.8827 8.91185C12.1416 8.91185 8.22506 14.3142 8.22506 20.0553C8.18444 20.8299 8.19336 21.5936 8.25081 22.3464" stroke="black" stroke-width="1.6" stroke-miterlimit="79.8403" stroke-linecap="round" stroke-linejoin="round"/>
<path d="M9.6814 28.0722C12.2766 34.0442 18.202 39.2454 26.7988 43.8267" stroke="black" stroke-width="1.6" stroke-miterlimit="79.8403" stroke-linecap="round" stroke-linejoin="round"/>
</svg>
