<svg width="18" height="17" viewBox="0 0 18 17" fill="none" xmlns="http://www.w3.org/2000/svg">
<path d="M17.4548 0.620831C17.1548 0.366431 16.6836 0.330031 16.1964 0.525632H16.1956C15.6832 0.731232 1.6912 6.73283 1.1216 6.97803C1.018 7.01403 0.1132 7.35163 0.2064 8.10363C0.2896 8.78163 1.0168 9.06243 1.1056 9.09483L4.6628 10.3128C4.8988 11.0984 5.7688 13.9968 5.9612 14.616C6.0812 15.002 6.2768 15.5092 6.6196 15.6136C6.9204 15.7296 7.2196 15.6236 7.4132 15.4716L9.588 13.4544L13.0988 16.1924L13.1824 16.2424C13.4208 16.348 13.6492 16.4008 13.8672 16.4008C14.0356 16.4008 14.1972 16.3692 14.3516 16.306C14.8776 16.09 15.088 15.5888 15.11 15.532L17.7324 1.90123C17.8924 1.17323 17.67 0.802831 17.4548 0.620831ZM7.8 10.8L6.6 14L5.4 10L14.6 3.20003L7.8 10.8Z" fill="white"/>
</svg>
