<svg width="603" height="307" viewBox="0 0 603 307" fill="none" xmlns="http://www.w3.org/2000/svg">
<circle cx="366" cy="187" r="24" fill="black"/>
<path fill-rule="evenodd" clip-rule="evenodd" d="M357.053 183.863C357.015 183.507 357 183.202 357 182.897C357 177.983 361.034 174 366 174C370.966 174 375 177.983 375 182.897C375 183.202 374.983 183.507 374.945 183.863C375 189.659 368.498 199.42 366 199.42C363.502 199.42 357 189.659 357.053 183.863H357.053ZM366 197.421L366.154 197.319C366.449 197.099 366.897 196.709 367.478 196.031C368.314 195.065 369.228 193.794 370.075 192.337C371.813 189.354 373.037 186.1 373.017 183.88L373.015 183.761L373.027 183.66C373.058 183.372 373.071 183.134 373.071 182.897C373.071 179.033 369.9 175.915 366 175.915C362.098 175.915 358.929 179.033 358.929 182.897C358.929 183.134 358.939 183.372 358.97 183.66L358.981 183.761L358.98 183.88C358.961 186.1 360.182 189.354 361.923 192.337C362.77 193.794 363.684 195.065 364.521 196.031C365.093 196.692 365.544 197.099 365.841 197.319L366 197.421Z" fill="white"/>
<path d="M363.427 182.898C363.427 181.494 364.579 180.356 366 180.356C367.421 180.356 368.573 181.494 368.573 182.898C368.573 184.302 367.421 185.44 366 185.44C364.579 185.44 363.427 184.302 363.427 182.898Z" fill="white"/>
<circle cx="24" cy="24" r="24" fill="black"/>
<path fill-rule="evenodd" clip-rule="evenodd" d="M15.0531 20.8631C15.0154 20.5073 15 20.2022 15 19.8972C15 14.9825 19.0337 11 24 11C28.9663 11 33 14.9825 33 19.8972C33 20.2022 32.9829 20.5073 32.9451 20.8631C33 26.659 26.4977 36.4205 24 36.4205C21.5022 36.4205 15 26.659 15.0531 20.8631H15.0531ZM23.9999 34.4207L24.1542 34.319C24.4491 34.0987 24.8965 33.7089 25.4777 33.0311C26.3142 32.0651 27.2279 30.7941 28.0748 29.3366C29.8131 26.354 31.0371 23.1001 31.0165 20.8801L31.0152 20.7615L31.0268 20.6598C31.0577 20.3717 31.0714 20.1344 31.0714 19.8972C31.0714 16.0333 27.9 12.915 24 12.915C20.0983 12.915 16.9286 16.0333 16.9286 19.8972C16.9286 20.1344 16.9389 20.3717 16.9697 20.6598L16.9813 20.7615L16.98 20.8801C16.9611 23.1001 18.1817 26.354 19.9234 29.3366C20.7703 30.7941 21.684 32.0651 22.5206 33.0311C23.0931 33.692 23.544 34.0987 23.8406 34.319L23.9999 34.4207Z" fill="white"/>
<path d="M21.4272 19.8976C21.4272 18.4937 22.5792 17.3556 24.0003 17.3556C25.4214 17.3556 26.5734 18.4937 26.5734 19.8976C26.5734 21.3016 25.4214 22.4397 24.0003 22.4397C22.5792 22.4397 21.4272 21.3016 21.4272 19.8976Z" fill="white"/>
<circle cx="481" cy="283" r="24" fill="black"/>
<path fill-rule="evenodd" clip-rule="evenodd" d="M472.053 279.863C472.015 279.507 472 279.202 472 278.897C472 273.983 476.034 270 481 270C485.966 270 490 273.983 490 278.897C490 279.202 489.983 279.507 489.945 279.863C490 285.659 483.498 295.42 481 295.42C478.502 295.42 472 285.659 472.053 279.863H472.053ZM481 293.421L481.154 293.319C481.449 293.099 481.897 292.709 482.478 292.031C483.314 291.065 484.228 289.794 485.075 288.337C486.813 285.354 488.037 282.1 488.017 279.88L488.015 279.761L488.027 279.66C488.058 279.372 488.071 279.134 488.071 278.897C488.071 275.033 484.9 271.915 481 271.915C477.098 271.915 473.929 275.033 473.929 278.897C473.929 279.134 473.939 279.372 473.97 279.66L473.981 279.761L473.98 279.88C473.961 282.1 475.182 285.354 476.923 288.337C477.77 289.794 478.684 291.065 479.521 292.031C480.093 292.692 480.544 293.099 480.841 293.319L481 293.421Z" fill="white"/>
<path d="M478.427 278.898C478.427 277.494 479.579 276.356 481 276.356C482.421 276.356 483.573 277.494 483.573 278.898C483.573 280.302 482.421 281.44 481 281.44C479.579 281.44 478.427 280.302 478.427 278.898Z" fill="white"/>
<circle cx="457" cy="123" r="24" fill="black"/>
<path fill-rule="evenodd" clip-rule="evenodd" d="M448.053 119.863C448.015 119.507 448 119.202 448 118.897C448 113.983 452.034 110 457 110C461.966 110 466 113.983 466 118.897C466 119.202 465.983 119.507 465.945 119.863C466 125.659 459.498 135.42 457 135.42C454.502 135.42 448 125.659 448.053 119.863H448.053ZM457 133.421L457.154 133.319C457.449 133.099 457.897 132.709 458.478 132.031C459.314 131.065 460.228 129.794 461.075 128.337C462.813 125.354 464.037 122.1 464.017 119.88L464.015 119.761L464.027 119.66C464.058 119.372 464.071 119.134 464.071 118.897C464.071 115.033 460.9 111.915 457 111.915C453.098 111.915 449.929 115.033 449.929 118.897C449.929 119.134 449.939 119.372 449.97 119.66L449.981 119.761L449.98 119.88C449.961 122.1 451.182 125.354 452.923 128.337C453.77 129.794 454.684 131.065 455.521 132.031C456.093 132.692 456.544 133.099 456.841 133.319L457 133.421Z" fill="white"/>
<path d="M454.427 118.898C454.427 117.494 455.579 116.356 457 116.356C458.421 116.356 459.573 117.494 459.573 118.898C459.573 120.302 458.421 121.44 457 121.44C455.579 121.44 454.427 120.302 454.427 118.898Z" fill="white"/>
<path d="M496.086 118.047V128H494.083V118.047H496.086ZM500.933 118.047L497.836 123.919H495.628L495.355 122.025H496.756L498.513 118.047H500.933ZM498.834 128L496.797 123.57L498.171 122.066L501.206 128H498.834ZM505.643 124.493H503.606V122.832H505.636C505.927 122.832 506.162 122.768 506.34 122.641C506.518 122.513 506.648 122.338 506.73 122.114C506.812 121.886 506.853 121.631 506.853 121.349C506.853 121.062 506.812 120.793 506.73 120.542C506.648 120.291 506.518 120.091 506.34 119.94C506.162 119.785 505.93 119.708 505.643 119.708H504.248V128H502.252V118.047H505.643C506.313 118.047 506.889 118.188 507.372 118.471C507.855 118.753 508.224 119.143 508.48 119.64C508.739 120.132 508.869 120.697 508.869 121.335C508.869 121.973 508.739 122.529 508.48 123.003C508.22 123.477 507.848 123.844 507.365 124.104C506.887 124.363 506.313 124.493 505.643 124.493ZM512.888 119.824L510.749 128H508.636L511.747 118.047H513.066L512.888 119.824ZM514.577 128L512.424 119.824L512.225 118.047H513.565L516.703 128H514.577ZM514.652 124.288V125.949H510.161V124.288H514.652ZM522.527 124.685H524.516C524.489 125.432 524.338 126.063 524.065 126.578C523.791 127.089 523.402 127.476 522.896 127.74C522.395 128.005 521.789 128.137 521.078 128.137C520.526 128.137 520.036 128.046 519.608 127.863C519.18 127.676 518.815 127.403 518.514 127.043C518.213 126.683 517.985 126.239 517.831 125.71C517.68 125.177 517.605 124.564 517.605 123.871V122.183C517.605 121.49 517.685 120.877 517.844 120.344C518.008 119.811 518.241 119.364 518.541 119.004C518.847 118.639 519.214 118.366 519.642 118.184C520.075 117.997 520.563 117.903 521.105 117.903C521.83 117.903 522.436 118.04 522.923 118.313C523.411 118.587 523.787 118.986 524.051 119.51C524.32 120.029 524.482 120.665 524.537 121.417H522.534C522.525 120.943 522.472 120.572 522.376 120.303C522.285 120.029 522.139 119.838 521.939 119.729C521.738 119.615 521.46 119.558 521.105 119.558C520.841 119.558 520.613 119.605 520.421 119.701C520.23 119.792 520.073 119.94 519.95 120.146C519.827 120.351 519.735 120.619 519.676 120.952C519.622 121.285 519.594 121.69 519.594 122.169V123.871C519.594 124.34 519.619 124.742 519.669 125.074C519.72 125.402 519.799 125.671 519.909 125.881C520.018 126.09 520.166 126.243 520.353 126.339C520.544 126.435 520.786 126.482 521.078 126.482C521.415 126.482 521.686 126.432 521.891 126.332C522.101 126.232 522.256 126.052 522.356 125.792C522.456 125.532 522.513 125.163 522.527 124.685ZM531.564 122.08V123.734H527.483V122.08H531.564ZM528.05 118.047V128H526.047V118.047H528.05ZM533.013 118.047V128H531.03V118.047H533.013ZM538.652 119.824L536.513 128H534.4L537.511 118.047H538.83L538.652 119.824ZM540.341 128L538.187 119.824L537.989 118.047H539.329L542.467 128H540.341ZM540.416 124.288V125.949H535.925V124.288H540.416ZM548.079 124.411H546.048L545.358 124.124C544.684 123.869 544.166 123.495 543.806 123.003C543.446 122.511 543.266 121.88 543.266 121.109C543.266 120.439 543.394 119.879 543.649 119.428C543.904 118.972 544.267 118.628 544.736 118.396C545.21 118.163 545.773 118.047 546.424 118.047H549.432V128H547.429V119.708H546.424C546.019 119.708 545.723 119.845 545.536 120.118C545.349 120.392 545.256 120.779 545.256 121.28C545.256 121.645 545.301 121.943 545.392 122.176C545.483 122.408 545.618 122.581 545.796 122.695C545.978 122.805 546.21 122.859 546.493 122.859H548.072L548.079 124.411ZM546.705 123.57L544.88 128H542.726L544.551 123.57H546.705ZM561.771 118.047V128H559.774V119.708H556.815V128H554.812V118.047H561.771ZM567.082 124.493H565.045V122.832H567.075C567.367 122.832 567.601 122.768 567.779 122.641C567.957 122.513 568.087 122.338 568.169 122.114C568.251 121.886 568.292 121.631 568.292 121.349C568.292 121.062 568.251 120.793 568.169 120.542C568.087 120.291 567.957 120.091 567.779 119.94C567.601 119.785 567.369 119.708 567.082 119.708H565.687V128H563.691V118.047H567.082C567.752 118.047 568.328 118.188 568.811 118.471C569.294 118.753 569.664 119.143 569.919 119.64C570.179 120.132 570.308 120.697 570.308 121.335C570.308 121.973 570.179 122.529 569.919 123.003C569.659 123.477 569.288 123.844 568.804 124.104C568.326 124.363 567.752 124.493 567.082 124.493ZM577.636 126.346V128H573.309V126.346H577.636ZM573.931 118.047V128H571.928V118.047H573.931ZM577.055 122.08V123.687H573.309V122.08H577.055ZM577.623 118.047V119.708H573.309V118.047H577.623ZM583.829 124.685H585.819C585.791 125.432 585.641 126.063 585.367 126.578C585.094 127.089 584.704 127.476 584.198 127.74C583.697 128.005 583.091 128.137 582.38 128.137C581.829 128.137 581.339 128.046 580.91 127.863C580.482 127.676 580.117 127.403 579.817 127.043C579.516 126.683 579.288 126.239 579.133 125.71C578.983 125.177 578.907 124.564 578.907 123.871V122.183C578.907 121.49 578.987 120.877 579.147 120.344C579.311 119.811 579.543 119.364 579.844 119.004C580.149 118.639 580.516 118.366 580.945 118.184C581.378 117.997 581.865 117.903 582.407 117.903C583.132 117.903 583.738 118.04 584.226 118.313C584.713 118.587 585.089 118.986 585.354 119.51C585.623 120.029 585.784 120.665 585.839 121.417H583.836C583.827 120.943 583.775 120.572 583.679 120.303C583.588 120.029 583.442 119.838 583.241 119.729C583.041 119.615 582.763 119.558 582.407 119.558C582.143 119.558 581.915 119.605 581.724 119.701C581.532 119.792 581.375 119.94 581.252 120.146C581.129 120.351 581.038 120.619 580.979 120.952C580.924 121.285 580.897 121.69 580.897 122.169V123.871C580.897 124.34 580.922 124.742 580.972 125.074C581.022 125.402 581.102 125.671 581.211 125.881C581.321 126.09 581.469 126.243 581.656 126.339C581.847 126.435 582.088 126.482 582.38 126.482C582.717 126.482 582.989 126.432 583.194 126.332C583.403 126.232 583.558 126.052 583.658 125.792C583.759 125.532 583.816 125.163 583.829 124.685ZM592.866 122.08V123.734H588.785V122.08H592.866ZM589.353 118.047V128H587.35V118.047H589.353ZM594.315 118.047V128H592.333V118.047H594.315ZM600.611 124.411H598.581L597.89 124.124C597.216 123.869 596.699 123.495 596.339 123.003C595.979 122.511 595.799 121.88 595.799 121.109C595.799 120.439 595.926 119.879 596.181 119.428C596.437 118.972 596.799 118.628 597.268 118.396C597.742 118.163 598.305 118.047 598.957 118.047H601.965V128H599.962V119.708H598.957C598.551 119.708 598.255 119.845 598.068 120.118C597.881 120.392 597.788 120.779 597.788 121.28C597.788 121.645 597.833 121.943 597.924 122.176C598.016 122.408 598.15 122.581 598.328 122.695C598.51 122.805 598.743 122.859 599.025 122.859H600.604L600.611 124.411ZM599.237 123.57L597.412 128H595.258L597.084 123.57H599.237Z" fill="black"/>
<path d="M403.557 182.047H405.314L407.344 188.855L409.367 182.047H410.919L408.089 192H406.592L403.557 182.047ZM402.846 182.047H404.521L404.78 188.609V192H402.846V182.047ZM410.154 182.047H411.835V192H409.907V188.609L410.154 182.047ZM419.457 190.346V192H415.13V190.346H419.457ZM415.752 182.047V192H413.749V182.047H415.752ZM418.876 186.08V187.687H415.13V186.08H418.876ZM419.443 182.047V183.708H415.13V182.047H419.443ZM425.007 182.047V192H423.018V182.047H425.007ZM427.482 182.047V183.708H420.591V182.047H427.482ZM434.632 190.346V192H430.305V190.346H434.632ZM430.927 182.047V192H428.924V182.047H430.927ZM434.051 186.08V187.687H430.305V186.08H434.051ZM434.619 182.047V183.708H430.305V182.047H434.619ZM443.074 186.251V187.912C443.074 188.614 442.988 189.229 442.815 189.758C442.646 190.282 442.404 190.722 442.09 191.077C441.78 191.428 441.404 191.692 440.962 191.87C440.524 192.048 440.039 192.137 439.506 192.137C438.973 192.137 438.485 192.048 438.043 191.87C437.606 191.692 437.227 191.428 436.908 191.077C436.594 190.722 436.35 190.282 436.177 189.758C436.004 189.229 435.917 188.614 435.917 187.912V186.251C435.917 185.531 436.001 184.902 436.17 184.364C436.339 183.822 436.582 183.371 436.901 183.011C437.22 182.646 437.599 182.373 438.036 182.19C438.474 182.004 438.959 181.91 439.492 181.91C440.025 181.91 440.511 182.004 440.948 182.19C441.386 182.373 441.764 182.646 442.083 183.011C442.402 183.371 442.646 183.822 442.815 184.364C442.988 184.902 443.074 185.531 443.074 186.251ZM441.085 187.912V186.237C441.085 185.763 441.051 185.36 440.982 185.027C440.914 184.69 440.812 184.414 440.675 184.2C440.538 183.986 440.372 183.829 440.176 183.729C439.98 183.628 439.752 183.578 439.492 183.578C439.232 183.578 439.002 183.628 438.802 183.729C438.606 183.829 438.44 183.986 438.303 184.2C438.171 184.414 438.07 184.69 438.002 185.027C437.938 185.36 437.906 185.763 437.906 186.237V187.912C437.906 188.368 437.941 188.757 438.009 189.081C438.077 189.405 438.18 189.669 438.316 189.874C438.453 190.079 438.62 190.232 438.816 190.332C439.016 190.428 439.246 190.476 439.506 190.476C439.761 190.476 439.987 190.428 440.183 190.332C440.383 190.232 440.55 190.079 440.682 189.874C440.814 189.669 440.914 189.405 440.982 189.081C441.051 188.757 441.085 188.368 441.085 187.912ZM448.201 188.493H446.164V186.832H448.194C448.486 186.832 448.721 186.768 448.898 186.641C449.076 186.513 449.206 186.338 449.288 186.114C449.37 185.886 449.411 185.631 449.411 185.349C449.411 185.062 449.37 184.793 449.288 184.542C449.206 184.291 449.076 184.091 448.898 183.94C448.721 183.785 448.488 183.708 448.201 183.708H446.806V192H444.81V182.047H448.201C448.871 182.047 449.447 182.188 449.93 182.471C450.414 182.753 450.783 183.143 451.038 183.64C451.298 184.132 451.428 184.697 451.428 185.335C451.428 185.973 451.298 186.529 451.038 187.003C450.778 187.477 450.407 187.844 449.924 188.104C449.445 188.363 448.871 188.493 448.201 188.493Z" fill="black"/>
<path d="M523.687 278.047V279.708H519.606V278.047H523.687ZM525.136 278.047V288H523.147V278.047H525.136ZM519.359 278.047H521.342L521.144 283.064C521.116 283.812 521.057 284.461 520.966 285.013C520.875 285.564 520.752 286.031 520.597 286.414C520.446 286.792 520.257 287.098 520.029 287.33C519.802 287.562 519.537 287.733 519.236 287.843C518.936 287.948 518.596 288 518.218 288H517.746V286.346L517.972 286.318C518.15 286.296 518.307 286.239 518.443 286.147C518.58 286.052 518.696 285.91 518.792 285.724C518.888 285.532 518.965 285.288 519.025 284.992C519.088 284.691 519.136 284.327 519.168 283.898C519.205 283.47 519.23 282.971 519.243 282.401L519.359 278.047ZM532.758 286.346V288H528.431V286.346H532.758ZM529.053 278.047V288H527.05V278.047H529.053ZM532.177 282.08V283.687H528.431V282.08H532.177ZM532.744 278.047V279.708H528.431V278.047H532.744ZM539.723 282.08V283.734H535.642V282.08H539.723ZM536.21 278.047V288H534.207V278.047H536.21ZM541.172 278.047V288H539.19V278.047H541.172ZM544.959 284.343L548.07 278.047H549.97V288H548.035V281.779L544.952 288H543.018V278.047H544.959V284.343ZM557.373 282.08V283.734H553.292V282.08H557.373ZM553.859 278.047V288H551.856V278.047H553.859ZM558.822 278.047V288H556.84V278.047H558.822ZM565.48 284.685H567.469C567.442 285.432 567.292 286.063 567.018 286.578C566.745 287.089 566.355 287.476 565.849 287.74C565.348 288.005 564.742 288.137 564.031 288.137C563.48 288.137 562.99 288.046 562.561 287.863C562.133 287.676 561.768 287.403 561.468 287.043C561.167 286.683 560.939 286.239 560.784 285.71C560.634 285.177 560.558 284.564 560.558 283.871V282.183C560.558 281.49 560.638 280.877 560.798 280.344C560.962 279.811 561.194 279.364 561.495 279.004C561.8 278.639 562.167 278.366 562.595 278.184C563.028 277.997 563.516 277.903 564.058 277.903C564.783 277.903 565.389 278.04 565.877 278.313C566.364 278.587 566.74 278.986 567.005 279.51C567.273 280.029 567.435 280.665 567.49 281.417H565.487C565.478 280.943 565.426 280.572 565.33 280.303C565.239 280.029 565.093 279.838 564.892 279.729C564.692 279.615 564.414 279.558 564.058 279.558C563.794 279.558 563.566 279.605 563.375 279.701C563.183 279.792 563.026 279.94 562.903 280.146C562.78 280.351 562.689 280.619 562.63 280.952C562.575 281.285 562.548 281.69 562.548 282.169V283.871C562.548 284.34 562.573 284.742 562.623 285.074C562.673 285.402 562.753 285.671 562.862 285.881C562.971 286.09 563.12 286.243 563.306 286.339C563.498 286.435 563.739 286.482 564.031 286.482C564.368 286.482 564.639 286.432 564.844 286.332C565.054 286.232 565.209 286.052 565.309 285.792C565.41 285.532 565.467 285.163 565.48 284.685ZM571.017 278.047V288H569.014V278.047H571.017ZM575.864 278.047L572.767 283.919H570.559L570.286 282.025H571.687L573.444 278.047H575.864ZM573.765 288L571.728 283.57L573.102 282.066L576.137 288H573.765ZM579.056 284.343L582.166 278.047H584.067V288H582.132V281.779L579.049 288H577.114V278.047H579.056V284.343ZM587.826 284.343L590.936 278.047H592.837V288H590.902V281.779L587.819 288H585.885V278.047H587.826V284.343ZM590.328 275.422H591.736C591.736 275.823 591.638 276.176 591.442 276.481C591.251 276.782 590.977 277.019 590.622 277.192C590.271 277.366 589.854 277.452 589.371 277.452C588.642 277.452 588.065 277.263 587.641 276.885C587.218 276.507 587.006 276.019 587.006 275.422H588.4C588.4 275.659 588.473 275.868 588.619 276.051C588.765 276.233 589.016 276.324 589.371 276.324C589.722 276.324 589.968 276.233 590.109 276.051C590.255 275.868 590.328 275.659 590.328 275.422Z" fill="black"/>
<path d="M66.5193 16.0801V17.7344H62.4382V16.0801H66.5193ZM63.0056 12.0469V22H61.0027V12.0469H63.0056ZM67.9685 12.0469V22H65.9861V12.0469H67.9685ZM76.8755 16.251V17.9121C76.8755 18.6139 76.7889 19.2292 76.6157 19.7578C76.4471 20.2819 76.2055 20.7217 75.8911 21.0771C75.5812 21.4281 75.2052 21.6924 74.7632 21.8701C74.3257 22.0479 73.8403 22.1367 73.3071 22.1367C72.7739 22.1367 72.2863 22.0479 71.8442 21.8701C71.4067 21.6924 71.0285 21.4281 70.7095 21.0771C70.395 20.7217 70.1512 20.2819 69.978 19.7578C69.8048 19.2292 69.7182 18.6139 69.7182 17.9121V16.251C69.7182 15.5309 69.8026 14.902 69.9712 14.3643C70.1398 13.8219 70.3836 13.3708 70.7026 13.0107C71.0216 12.6462 71.3999 12.3727 71.8374 12.1904C72.2749 12.0036 72.7602 11.9102 73.2934 11.9102C73.8266 11.9102 74.312 12.0036 74.7495 12.1904C75.187 12.3727 75.5652 12.6462 75.8843 13.0107C76.2033 13.3708 76.4471 13.8219 76.6157 14.3643C76.7889 14.902 76.8755 15.5309 76.8755 16.251ZM74.8862 17.9121V16.2373C74.8862 15.7633 74.852 15.36 74.7837 15.0273C74.7153 14.6901 74.6128 14.4144 74.4761 14.2002C74.3393 13.986 74.173 13.8288 73.977 13.7285C73.7811 13.6283 73.5532 13.5781 73.2934 13.5781C73.0337 13.5781 72.8035 13.6283 72.603 13.7285C72.407 13.8288 72.2407 13.986 72.104 14.2002C71.9718 14.4144 71.8716 14.6901 71.8032 15.0273C71.7394 15.36 71.7075 15.7633 71.7075 16.2373V17.9121C71.7075 18.3678 71.7417 18.7575 71.81 19.0811C71.8784 19.4046 71.9809 19.6689 72.1177 19.874C72.2544 20.0791 72.4207 20.2318 72.6167 20.332C72.8172 20.4277 73.0473 20.4756 73.3071 20.4756C73.5623 20.4756 73.7879 20.4277 73.9839 20.332C74.1844 20.2318 74.3507 20.0791 74.4829 19.874C74.6151 19.6689 74.7153 19.4046 74.7837 19.0811C74.852 18.7575 74.8862 18.3678 74.8862 17.9121ZM81.9748 17.6592H79.9309L79.924 16.21H81.6604C81.9338 16.21 82.1571 16.1644 82.3303 16.0732C82.508 15.9775 82.6379 15.8385 82.7199 15.6562C82.8065 15.4694 82.8498 15.2415 82.8498 14.9727C82.8498 14.6719 82.8088 14.4303 82.7268 14.248C82.6493 14.0612 82.524 13.9245 82.3508 13.8379C82.1822 13.7513 81.9589 13.708 81.6809 13.708H80.6145V22H78.6115V12.0469H81.6809C82.1776 12.0469 82.6219 12.1016 83.0139 12.2109C83.4058 12.3203 83.7362 12.4867 84.0051 12.71C84.2785 12.9333 84.4882 13.2158 84.634 13.5576C84.7798 13.8994 84.8527 14.3027 84.8527 14.7676C84.8527 15.1777 84.7707 15.556 84.6066 15.9023C84.4426 16.2487 84.1851 16.5335 83.8342 16.7568C83.4878 16.9756 83.0344 17.0964 82.4738 17.1191L81.9748 17.6592ZM81.8996 22H79.3635L80.1633 20.3457H81.8996C82.1685 20.3457 82.3827 20.2887 82.5422 20.1748C82.7017 20.0609 82.8179 19.9082 82.8908 19.7168C82.9683 19.5208 83.007 19.2975 83.007 19.0469C83.007 18.7643 82.9729 18.5182 82.9045 18.3086C82.8407 18.099 82.7336 17.9395 82.5832 17.8301C82.4328 17.7161 82.23 17.6592 81.9748 17.6592H80.2521L80.2658 16.21H82.3576L82.8293 16.7842C83.3625 16.766 83.7886 16.8685 84.1076 17.0918C84.4266 17.3105 84.6545 17.5977 84.7912 17.9531C84.9325 18.304 85.0031 18.6777 85.0031 19.0742C85.0031 19.7122 84.8824 20.25 84.6408 20.6875C84.4038 21.1204 84.0552 21.4486 83.5949 21.6719C83.1346 21.8906 82.5695 22 81.8996 22ZM90.3554 13.8242L88.2157 22H86.1034L89.2138 12.0469H90.5331L90.3554 13.8242ZM92.0439 22L89.8905 13.8242L89.6923 12.0469H91.0322L94.1698 22H92.0439ZM92.1191 18.2881V19.9492H87.6279V18.2881H92.1191ZM99.7819 18.4111H97.7516L97.0612 18.124C96.3867 17.8688 95.8694 17.4951 95.5094 17.0029C95.1494 16.5107 94.9694 15.8796 94.9694 15.1094C94.9694 14.4395 95.097 13.8789 95.3522 13.4277C95.6074 12.972 95.9697 12.6279 96.4391 12.3955C96.9131 12.1631 97.4759 12.0469 98.1276 12.0469H101.135V22H99.1325V13.708H98.1276C97.722 13.708 97.4258 13.8447 97.2389 14.1182C97.0521 14.3916 96.9586 14.779 96.9586 15.2803C96.9586 15.6449 97.0042 15.9434 97.0954 16.1758C97.1865 16.4082 97.3209 16.5814 97.4987 16.6953C97.681 16.8047 97.9134 16.8594 98.1959 16.8594H99.775L99.7819 18.4111ZM98.4079 17.5703L96.5827 22H94.4293L96.2545 17.5703H98.4079ZM109.892 18.4932H107.855V16.832H109.885C110.177 16.832 110.411 16.7682 110.589 16.6406C110.767 16.513 110.897 16.3376 110.979 16.1143C111.061 15.8864 111.102 15.6312 111.102 15.3486C111.102 15.0615 111.061 14.7926 110.979 14.542C110.897 14.2913 110.767 14.0908 110.589 13.9404C110.411 13.7855 110.179 13.708 109.892 13.708H108.497V22H106.501V12.0469H109.892C110.562 12.0469 111.138 12.1882 111.621 12.4707C112.104 12.7533 112.473 13.1429 112.729 13.6396C112.988 14.1318 113.118 14.6969 113.118 15.335C113.118 15.973 112.988 16.529 112.729 17.0029C112.469 17.4769 112.097 17.8438 111.614 18.1035C111.136 18.3633 110.562 18.4932 109.892 18.4932ZM116.611 18.3428L119.721 12.0469H121.622V22H119.687V15.7793L116.604 22H114.67V12.0469H116.611V18.3428ZM129.107 12.0469V13.708H125.525V22H123.529V12.0469H129.107ZM132.846 13.8242L130.706 22H128.594L131.704 12.0469H133.024L132.846 13.8242ZM134.534 22L132.381 13.8242L132.183 12.0469H133.523L136.66 22H134.534ZM134.61 18.2881V19.9492H130.118V18.2881H134.61Z" fill="black"/>
<path d="M61.2262 27.8906H62.0953L63.9557 33.6865L65.8111 27.8906H66.6803L64.2926 35H63.609L61.2262 27.8906ZM60.943 27.8906H61.7047L61.8365 32.2266V35H60.943V27.8906ZM66.1969 27.8906H66.9586V35H66.065V32.2266L66.1969 27.8906ZM73.2256 30.8301V32.0654C73.2256 32.5667 73.1702 33.0078 73.0596 33.3887C72.9521 33.7663 72.7943 34.082 72.5859 34.3359C72.3776 34.5898 72.127 34.7803 71.834 34.9072C71.541 35.0342 71.2106 35.0977 70.8428 35.0977C70.488 35.0977 70.1641 35.0342 69.8711 34.9072C69.5781 34.7803 69.3258 34.5898 69.1143 34.3359C68.9027 34.082 68.7383 33.7663 68.6211 33.3887C68.5072 33.0078 68.4502 32.5667 68.4502 32.0654V30.8301C68.4502 30.3288 68.5072 29.8893 68.6211 29.5117C68.735 29.1309 68.8978 28.8135 69.1094 28.5596C69.321 28.3057 69.5732 28.1152 69.8662 27.9883C70.1592 27.8581 70.4831 27.793 70.8379 27.793C71.2057 27.793 71.5361 27.8581 71.8291 27.9883C72.1253 28.1152 72.376 28.3057 72.5811 28.5596C72.7894 28.8135 72.9489 29.1309 73.0596 29.5117C73.1702 29.8893 73.2256 30.3288 73.2256 30.8301ZM72.3369 32.0654V30.8203C72.3369 30.4297 72.3044 30.0944 72.2393 29.8145C72.1742 29.5312 72.0781 29.3001 71.9512 29.1211C71.8242 28.9421 71.668 28.8102 71.4824 28.7256C71.2969 28.6377 71.082 28.5938 70.8379 28.5938C70.6068 28.5938 70.3984 28.6377 70.2129 28.7256C70.0306 28.8102 69.8744 28.9421 69.7441 29.1211C69.6139 29.3001 69.513 29.5312 69.4414 29.8145C69.373 30.0944 69.3389 30.4297 69.3389 30.8203V32.0654C69.3389 32.4593 69.373 32.7979 69.4414 33.0811C69.513 33.361 69.6139 33.5921 69.7441 33.7744C69.8776 33.9535 70.0371 34.0869 70.2227 34.1748C70.4082 34.2594 70.6149 34.3018 70.8428 34.3018C71.0869 34.3018 71.3018 34.2594 71.4873 34.1748C71.6761 34.0869 71.8324 33.9535 71.9561 33.7744C72.083 33.5921 72.1774 33.361 72.2393 33.0811C72.3044 32.7979 72.3369 32.4593 72.3369 32.0654ZM78.2768 32.7393H79.1752C79.1524 33.2275 79.0531 33.6491 78.8773 34.0039C78.7048 34.3555 78.4525 34.6257 78.1205 34.8145C77.7917 35.0033 77.3799 35.0977 76.8852 35.0977C76.5303 35.0977 76.2097 35.0277 75.9232 34.8877C75.6368 34.7477 75.391 34.5475 75.1859 34.2871C74.9841 34.0234 74.8295 33.7077 74.7221 33.3398C74.6146 32.972 74.5609 32.5586 74.5609 32.0996V30.7861C74.5609 30.3304 74.6146 29.9186 74.7221 29.5508C74.8327 29.1829 74.9906 28.8688 75.1957 28.6084C75.404 28.3447 75.6563 28.1429 75.9525 28.0029C76.252 27.863 76.5906 27.793 76.9682 27.793C77.4304 27.793 77.821 27.8857 78.14 28.0713C78.4623 28.2536 78.7097 28.5221 78.8822 28.877C79.058 29.2285 79.1557 29.6598 79.1752 30.1709H78.2768C78.254 29.7965 78.1954 29.4922 78.101 29.2578C78.0066 29.0202 77.8666 28.846 77.6811 28.7354C77.4988 28.6214 77.2611 28.5645 76.9682 28.5645C76.7077 28.5645 76.4815 28.6165 76.2895 28.7207C76.1007 28.8249 75.9444 28.9746 75.8207 29.1699C75.7003 29.362 75.6091 29.5947 75.5473 29.8682C75.4887 30.1383 75.4594 30.4411 75.4594 30.7764V32.0996C75.4594 32.4121 75.4838 32.7035 75.5326 32.9736C75.5847 33.2438 75.6661 33.4814 75.7768 33.6865C75.8907 33.8883 76.0388 34.0462 76.2211 34.1602C76.4034 34.2741 76.6247 34.3311 76.8852 34.3311C77.2139 34.3311 77.4744 34.2773 77.6664 34.1699C77.8585 34.0625 78.0001 33.8916 78.0912 33.6572C78.1856 33.4229 78.2475 33.1169 78.2768 32.7393ZM81.4334 27.8906V35H80.535V27.8906H81.4334ZM85.0906 27.8906L82.5223 31.8018H81.077L80.9256 31.0205H81.9803L83.9773 27.8906H85.0906ZM84.1629 35L82.0242 31.6797L82.5271 30.8545L85.2566 35H84.1629ZM90.6643 30.8301V32.0654C90.6643 32.5667 90.6089 33.0078 90.4982 33.3887C90.3908 33.7663 90.2329 34.082 90.0246 34.3359C89.8163 34.5898 89.5656 34.7803 89.2727 34.9072C88.9797 35.0342 88.6493 35.0977 88.2814 35.0977C87.9266 35.0977 87.6027 35.0342 87.3098 34.9072C87.0168 34.7803 86.7645 34.5898 86.5529 34.3359C86.3413 34.082 86.177 33.7663 86.0598 33.3887C85.9458 33.0078 85.8889 32.5667 85.8889 32.0654V30.8301C85.8889 30.3288 85.9458 29.8893 86.0598 29.5117C86.1737 29.1309 86.3365 28.8135 86.548 28.5596C86.7596 28.3057 87.0119 28.1152 87.3049 27.9883C87.5979 27.8581 87.9217 27.793 88.2766 27.793C88.6444 27.793 88.9748 27.8581 89.2678 27.9883C89.564 28.1152 89.8146 28.3057 90.0197 28.5596C90.2281 28.8135 90.3876 29.1309 90.4982 29.5117C90.6089 29.8893 90.6643 30.3288 90.6643 30.8301ZM89.7756 32.0654V30.8203C89.7756 30.4297 89.743 30.0944 89.6779 29.8145C89.6128 29.5312 89.5168 29.3001 89.3898 29.1211C89.2629 28.9421 89.1066 28.8102 88.9211 28.7256C88.7355 28.6377 88.5207 28.5938 88.2766 28.5938C88.0454 28.5938 87.8371 28.6377 87.6516 28.7256C87.4693 28.8102 87.313 28.9421 87.1828 29.1211C87.0526 29.3001 86.9517 29.5312 86.8801 29.8145C86.8117 30.0944 86.7775 30.4297 86.7775 30.8203V32.0654C86.7775 32.4593 86.8117 32.7979 86.8801 33.0811C86.9517 33.361 87.0526 33.5921 87.1828 33.7744C87.3163 33.9535 87.4758 34.0869 87.6613 34.1748C87.8469 34.2594 88.0536 34.3018 88.2814 34.3018C88.5256 34.3018 88.7404 34.2594 88.926 34.1748C89.1148 34.0869 89.271 33.9535 89.3947 33.7744C89.5217 33.5921 89.6161 33.361 89.6779 33.0811C89.743 32.7979 89.7756 32.4593 89.7756 32.0654ZM94.3092 31.6748H92.8639L92.8541 30.918H94.1969C94.3987 30.918 94.5777 30.8724 94.734 30.7812C94.8902 30.6901 95.0123 30.5599 95.1002 30.3906C95.1913 30.2181 95.2369 30.013 95.2369 29.7754C95.2369 29.515 95.1979 29.3034 95.1197 29.1406C95.0449 28.9746 94.9293 28.8542 94.773 28.7793C94.6201 28.7012 94.4247 28.6621 94.1871 28.6621H93.0543V35H92.1559V27.8906H94.1871C94.4931 27.8906 94.7665 27.9281 95.0074 28.0029C95.2483 28.0745 95.4518 28.1885 95.6178 28.3447C95.787 28.4977 95.9156 28.693 96.0035 28.9307C96.0914 29.1683 96.1354 29.4531 96.1354 29.7852C96.1354 30.0781 96.0686 30.3434 95.9352 30.5811C95.8049 30.8154 95.6227 31.0075 95.3883 31.1572C95.1539 31.307 94.8837 31.403 94.5777 31.4453L94.3092 31.6748ZM94.275 35H92.4928L93.0152 34.2334H94.275C94.5094 34.2334 94.7079 34.1813 94.8707 34.0771C95.0335 33.973 95.1572 33.8265 95.2418 33.6377C95.3297 33.4456 95.3736 33.2194 95.3736 32.959C95.3736 32.6953 95.3378 32.4674 95.2662 32.2754C95.1946 32.0833 95.0807 31.9352 94.9244 31.8311C94.7682 31.7269 94.5631 31.6748 94.3092 31.6748H93.152L93.1617 30.918H94.7242L94.9244 31.1914C95.2174 31.2207 95.4632 31.3184 95.6617 31.4844C95.8635 31.6471 96.0149 31.8555 96.1158 32.1094C96.22 32.3633 96.2721 32.6432 96.2721 32.9492C96.2721 33.3919 96.1891 33.7663 96.023 34.0723C95.8603 34.375 95.6292 34.6061 95.3297 34.7656C95.0302 34.9219 94.6786 35 94.275 35ZM101.274 32.7393H102.173C102.15 33.2275 102.051 33.6491 101.875 34.0039C101.702 34.3555 101.45 34.6257 101.118 34.8145C100.789 35.0033 100.378 35.0977 99.8828 35.0977C99.528 35.0977 99.2074 35.0277 98.9209 34.8877C98.6344 34.7477 98.3887 34.5475 98.1836 34.2871C97.9818 34.0234 97.8271 33.7077 97.7197 33.3398C97.6123 32.972 97.5586 32.5586 97.5586 32.0996V30.7861C97.5586 30.3304 97.6123 29.9186 97.7197 29.5508C97.8304 29.1829 97.9883 28.8688 98.1934 28.6084C98.4017 28.3447 98.654 28.1429 98.9502 28.0029C99.2497 27.863 99.5882 27.793 99.9658 27.793C100.428 27.793 100.819 27.8857 101.138 28.0713C101.46 28.2536 101.707 28.5221 101.88 28.877C102.056 29.2285 102.153 29.6598 102.173 30.1709H101.274C101.252 29.7965 101.193 29.4922 101.099 29.2578C101.004 29.0202 100.864 28.846 100.679 28.7354C100.496 28.6214 100.259 28.5645 99.9658 28.5645C99.7054 28.5645 99.4792 28.6165 99.2871 28.7207C99.0983 28.8249 98.9421 28.9746 98.8184 29.1699C98.6979 29.362 98.6068 29.5947 98.5449 29.8682C98.4863 30.1383 98.457 30.4411 98.457 30.7764V32.0996C98.457 32.4121 98.4814 32.7035 98.5303 32.9736C98.5824 33.2438 98.6637 33.4814 98.7744 33.6865C98.8883 33.8883 99.0365 34.0462 99.2188 34.1602C99.401 34.2741 99.6224 34.3311 99.8828 34.3311C100.212 34.3311 100.472 34.2773 100.664 34.1699C100.856 34.0625 100.998 33.8916 101.089 33.6572C101.183 33.4229 101.245 33.1169 101.274 32.7393ZM104.431 27.8906V35H103.533V27.8906H104.431ZM108.088 27.8906L105.52 31.8018H104.075L103.923 31.0205H104.978L106.975 27.8906H108.088ZM107.161 35L105.022 31.6797L105.525 30.8545L108.254 35H107.161ZM111.499 28.5205L109.555 35H108.638L110.928 27.8906H111.504L111.499 28.5205ZM113.071 35L111.128 28.5205L111.118 27.8906H111.699L113.989 35H113.071ZM113.071 32.3682V33.1396H109.643V32.3682H113.071ZM118.362 32.2314H116.819L116.364 32.041C115.922 31.8783 115.582 31.6292 115.344 31.2939C115.11 30.9554 114.992 30.5355 114.992 30.0342C114.992 29.5752 115.079 29.1862 115.251 28.8672C115.424 28.5482 115.669 28.3057 115.988 28.1396C116.311 27.9736 116.69 27.8906 117.126 27.8906H119.07V35H118.171V28.6621H117.126C116.713 28.6621 116.404 28.7858 116.198 29.0332C115.993 29.2806 115.891 29.6143 115.891 30.0342C115.891 30.3076 115.936 30.5518 116.028 30.7666C116.122 30.9814 116.262 31.1507 116.447 31.2744C116.633 31.3981 116.866 31.46 117.146 31.46H118.366L118.362 32.2314ZM117.16 31.7432L115.715 35H114.758L116.252 31.7432H117.16ZM127.81 30.8301V32.0654C127.81 32.5667 127.754 33.0078 127.644 33.3887C127.536 33.7663 127.378 34.082 127.17 34.3359C126.962 34.5898 126.711 34.7803 126.418 34.9072C126.125 35.0342 125.795 35.0977 125.427 35.0977C125.072 35.0977 124.748 35.0342 124.455 34.9072C124.162 34.7803 123.91 34.5898 123.698 34.3359C123.487 34.082 123.322 33.7663 123.205 33.3887C123.091 33.0078 123.034 32.5667 123.034 32.0654V30.8301C123.034 30.3288 123.091 29.8893 123.205 29.5117C123.319 29.1309 123.482 28.8135 123.693 28.5596C123.905 28.3057 124.157 28.1152 124.45 27.9883C124.743 27.8581 125.067 27.793 125.422 27.793C125.79 27.793 126.12 27.8581 126.413 27.9883C126.709 28.1152 126.96 28.3057 127.165 28.5596C127.373 28.8135 127.533 29.1309 127.644 29.5117C127.754 29.8893 127.81 30.3288 127.81 30.8301ZM126.921 32.0654V30.8203C126.921 30.4297 126.888 30.0944 126.823 29.8145C126.758 29.5312 126.662 29.3001 126.535 29.1211C126.408 28.9421 126.252 28.8102 126.066 28.7256C125.881 28.6377 125.666 28.5938 125.422 28.5938C125.191 28.5938 124.982 28.6377 124.797 28.7256C124.615 28.8102 124.458 28.9421 124.328 29.1211C124.198 29.3001 124.097 29.5312 124.025 29.8145C123.957 30.0944 123.923 30.4297 123.923 30.8203V32.0654C123.923 32.4593 123.957 32.7979 124.025 33.0811C124.097 33.361 124.198 33.5921 124.328 33.7744C124.462 33.9535 124.621 34.0869 124.807 34.1748C124.992 34.2594 125.199 34.3018 125.427 34.3018C125.671 34.3018 125.886 34.2594 126.071 34.1748C126.26 34.0869 126.416 33.9535 126.54 33.7744C126.667 33.5921 126.761 33.361 126.823 33.0811C126.888 32.7979 126.921 32.4593 126.921 32.0654ZM132.968 27.8906V28.6621H130.175V35H129.277V27.8906H132.968ZM129.985 30.7861H131.601C132.04 30.7861 132.412 30.874 132.714 31.0498C133.02 31.2223 133.251 31.4648 133.408 31.7773C133.567 32.0898 133.647 32.4561 133.647 32.876C133.647 33.1885 133.601 33.4749 133.51 33.7354C133.422 33.9925 133.29 34.2171 133.115 34.4092C132.942 34.598 132.729 34.7445 132.475 34.8486C132.221 34.9495 131.93 35 131.601 35H129.277V27.8906H130.175V34.2334H131.601C131.874 34.2334 132.094 34.1699 132.26 34.043C132.429 33.9128 132.553 33.7435 132.631 33.5352C132.709 33.3268 132.748 33.1038 132.748 32.8662C132.748 32.6286 132.709 32.4105 132.631 32.2119C132.553 32.0133 132.429 31.8555 132.26 31.7383C132.094 31.6178 131.874 31.5576 131.601 31.5576H129.985V30.7861ZM138.683 27.8906V28.6621H136.027V27.8906H138.683ZM139.474 27.8906V35H138.576V27.8906H139.474ZM135.724 27.8906H136.618L136.491 31.3721C136.475 31.8734 136.444 32.321 136.398 32.7148C136.353 33.1055 136.288 33.4456 136.203 33.7354C136.118 34.0218 136.008 34.2594 135.871 34.4482C135.734 34.6338 135.567 34.7721 135.368 34.8633C135.173 34.9544 134.94 35 134.67 35H134.435V34.2334L134.606 34.2188C134.756 34.2057 134.885 34.165 134.992 34.0967C135.103 34.0251 135.194 33.9176 135.265 33.7744C135.34 33.6312 135.401 33.4456 135.446 33.2178C135.495 32.9899 135.532 32.7116 135.558 32.3828C135.584 32.0508 135.604 31.6634 135.617 31.2207L135.724 27.8906ZM143.554 28.5205L141.611 35H140.693L142.983 27.8906H143.559L143.554 28.5205ZM145.126 35L143.183 28.5205L143.173 27.8906H143.754L146.044 35H145.126ZM145.126 32.3682V33.1396H141.698V32.3682H145.126ZM150.622 32.7393H151.52C151.497 33.2275 151.398 33.6491 151.222 34.0039C151.05 34.3555 150.797 34.6257 150.465 34.8145C150.137 35.0033 149.725 35.0977 149.23 35.0977C148.875 35.0977 148.555 35.0277 148.268 34.8877C147.982 34.7477 147.736 34.5475 147.531 34.2871C147.329 34.0234 147.174 33.7077 147.067 33.3398C146.96 32.972 146.906 32.5586 146.906 32.0996V30.7861C146.906 30.3304 146.96 29.9186 147.067 29.5508C147.178 29.1829 147.336 28.8688 147.541 28.6084C147.749 28.3447 148.001 28.1429 148.297 28.0029C148.597 27.863 148.935 27.793 149.313 27.793C149.775 27.793 150.166 27.8857 150.485 28.0713C150.807 28.2536 151.055 28.5221 151.227 28.877C151.403 29.2285 151.501 29.6598 151.52 30.1709H150.622C150.599 29.7965 150.54 29.4922 150.446 29.2578C150.351 29.0202 150.212 28.846 150.026 28.7354C149.844 28.6214 149.606 28.5645 149.313 28.5645C149.053 28.5645 148.826 28.6165 148.634 28.7207C148.446 28.8249 148.289 28.9746 148.166 29.1699C148.045 29.362 147.954 29.5947 147.892 29.8682C147.834 30.1383 147.804 30.4411 147.804 30.7764V32.0996C147.804 32.4121 147.829 32.7035 147.878 32.9736C147.93 33.2438 148.011 33.4814 148.122 33.6865C148.236 33.8883 148.384 34.0462 148.566 34.1602C148.748 34.2741 148.97 34.3311 149.23 34.3311C149.559 34.3311 149.819 34.2773 150.011 34.1699C150.203 34.0625 150.345 33.8916 150.436 33.6572C150.531 33.4229 150.592 33.1169 150.622 32.7393ZM154.975 27.8906V35H154.086V27.8906H154.975ZM156.845 27.8906V28.6621H152.221V27.8906H156.845ZM158.756 30.7861H160.372C160.812 30.7861 161.183 30.874 161.486 31.0498C161.792 31.2223 162.023 31.4648 162.179 31.7773C162.339 32.0898 162.418 32.4561 162.418 32.876C162.418 33.1885 162.373 33.4749 162.282 33.7354C162.194 33.9925 162.062 34.2171 161.886 34.4092C161.714 34.598 161.5 34.7445 161.246 34.8486C160.993 34.9495 160.701 35 160.372 35H158.048V27.8906H158.947V34.2334H160.372C160.646 34.2334 160.866 34.1699 161.032 34.043C161.201 33.9128 161.325 33.7435 161.403 33.5352C161.481 33.3268 161.52 33.1038 161.52 32.8662C161.52 32.6286 161.481 32.4105 161.403 32.2119C161.325 32.0133 161.201 31.8555 161.032 31.7383C160.866 31.6178 160.646 31.5576 160.372 31.5576H158.756V30.7861Z" fill="black"/>
</svg>
