<svg width="168" height="102" viewBox="0 0 168 102" fill="none" xmlns="http://www.w3.org/2000/svg">
<circle cx="121.729" cy="62.0832" r="7.92304" fill="black"/>
<path fill-rule="evenodd" clip-rule="evenodd" d="M118.777 61.0471C118.764 60.9296 118.759 60.8289 118.759 60.7282C118.759 59.1058 120.091 57.791 121.73 57.791C123.37 57.791 124.701 59.1058 124.701 60.7282C124.701 60.8289 124.696 60.9296 124.683 61.0471C124.701 62.9605 122.555 66.183 121.73 66.183C120.906 66.183 118.759 62.9605 118.777 61.0471H118.777ZM121.73 65.5228L121.781 65.4893C121.879 65.4165 122.026 65.2878 122.218 65.0641C122.494 64.7452 122.796 64.3256 123.075 63.8444C123.649 62.8598 124.053 61.7856 124.047 61.0527L124.046 61.0135L124.05 60.98C124.06 60.8849 124.065 60.8065 124.065 60.7282C124.065 59.4526 123.018 58.4232 121.73 58.4232C120.442 58.4232 119.396 59.4526 119.396 60.7282C119.396 60.8065 119.399 60.8849 119.409 60.98L119.413 61.0135L119.413 61.0527C119.407 61.7856 119.81 62.8598 120.385 63.8444C120.664 64.3256 120.966 64.7452 121.242 65.0641C121.431 65.2822 121.58 65.4165 121.678 65.4893L121.73 65.5228Z" fill="white"/>
<path d="M120.879 60.7282C120.879 60.2647 121.259 59.889 121.728 59.889C122.197 59.889 122.578 60.2647 122.578 60.7282C122.578 61.1917 122.197 61.5674 121.728 61.5674C121.259 61.5674 120.879 61.1917 120.879 60.7282Z" fill="white"/>
<circle cx="8.82538" cy="8.27216" r="7.92304" fill="black"/>
<path fill-rule="evenodd" clip-rule="evenodd" d="M5.87117 7.23655C5.85873 7.11907 5.85364 7.01836 5.85364 6.91766C5.85364 5.29521 7.18527 3.98047 8.82478 3.98047C10.4643 3.98047 11.7959 5.29521 11.7959 6.91766C11.7959 7.01836 11.7903 7.11907 11.7778 7.23655C11.7959 9.14992 9.64933 12.3724 8.82476 12.3724C8.0002 12.3724 5.85363 9.14992 5.87117 7.23655H5.87117ZM8.82476 11.7123L8.8757 11.6787C8.97304 11.606 9.12074 11.4773 9.31259 11.2535C9.58877 10.9346 9.89041 10.515 10.17 10.0339C10.7438 9.04922 11.1479 7.97505 11.1411 7.24215L11.1407 7.20299L11.1445 7.16942C11.1547 7.07431 11.1592 6.99599 11.1592 6.91766C11.1592 5.64208 10.1123 4.61267 8.82478 4.61267C7.53672 4.61267 6.49031 5.64208 6.49031 6.91766C6.49031 6.99599 6.49371 7.07431 6.5039 7.16942L6.50772 7.20299L6.50729 7.24215C6.50105 7.97505 6.90401 9.04922 7.47899 10.0339C7.75856 10.515 8.06021 10.9346 8.33638 11.2535C8.5254 11.4717 8.67424 11.606 8.77214 11.6787L8.82476 11.7123Z" fill="white"/>
<path d="M7.97333 6.91764C7.97333 6.45416 8.35364 6.07844 8.82278 6.07844C9.29193 6.07844 9.67224 6.45416 9.67224 6.91764C9.67224 7.38111 9.29193 7.75684 8.82278 7.75684C8.35364 7.75684 7.97333 7.38111 7.97333 6.91764Z" fill="white"/>
<circle cx="159.693" cy="93.7746" r="7.92304" fill="black"/>
<path fill-rule="evenodd" clip-rule="evenodd" d="M156.741 92.739C156.728 92.6215 156.723 92.5208 156.723 92.4201C156.723 90.7977 158.055 89.4829 159.694 89.4829C161.334 89.4829 162.665 90.7977 162.665 92.4201C162.665 92.5208 162.66 92.6215 162.647 92.739C162.665 94.6524 160.519 97.8749 159.694 97.8749C158.87 97.8749 156.723 94.6524 156.741 92.739H156.741ZM159.694 97.2147L159.745 97.1811C159.843 97.1084 159.99 96.9797 160.182 96.756C160.458 96.4371 160.76 96.0175 161.039 95.5363C161.613 94.5517 162.017 93.4775 162.011 92.7446L162.01 92.7054L162.014 92.6719C162.024 92.5768 162.029 92.4984 162.029 92.4201C162.029 91.1445 160.982 90.1151 159.694 90.1151C158.406 90.1151 157.36 91.1445 157.36 92.4201C157.36 92.4984 157.363 92.5768 157.373 92.6719L157.377 92.7054L157.377 92.7446C157.371 93.4775 157.774 94.5517 158.348 95.5363C158.628 96.0175 158.93 96.4371 159.206 96.756C159.395 96.9741 159.544 97.1084 159.642 97.1811L159.694 97.2147Z" fill="white"/>
<path d="M158.843 92.4201C158.843 91.9566 159.223 91.5809 159.692 91.5809C160.161 91.5809 160.542 91.9566 160.542 92.4201C160.542 92.8836 160.161 93.2593 159.692 93.2593C159.223 93.2593 158.843 92.8836 158.843 92.4201Z" fill="white"/>
<circle cx="151.767" cy="40.9548" r="7.92304" fill="black"/>
<path fill-rule="evenodd" clip-rule="evenodd" d="M148.815 39.9192C148.802 39.8017 148.797 39.701 148.797 39.6003C148.797 37.9778 150.129 36.6631 151.768 36.6631C153.408 36.6631 154.739 37.9778 154.739 39.6003C154.739 39.701 154.734 39.8017 154.721 39.9192C154.739 41.8325 152.593 45.0551 151.768 45.0551C150.944 45.0551 148.797 41.8325 148.815 39.9192H148.815ZM151.768 44.3949L151.819 44.3613C151.917 44.2886 152.064 44.1599 152.256 43.9361C152.532 43.6172 152.834 43.1976 153.113 42.7165C153.687 41.7318 154.091 40.6577 154.085 39.9248L154.084 39.8856L154.088 39.852C154.098 39.7569 154.103 39.6786 154.103 39.6003C154.103 38.3247 153.056 37.2953 151.768 37.2953C150.48 37.2953 149.434 38.3247 149.434 39.6003C149.434 39.6786 149.437 39.7569 149.447 39.852L149.451 39.8856L149.451 39.9248C149.445 40.6577 149.847 41.7318 150.422 42.7165C150.702 43.1976 151.004 43.6172 151.28 43.9361C151.469 44.1543 151.618 44.2886 151.716 44.3613L151.768 44.3949Z" fill="white"/>
<path d="M150.917 39.6003C150.917 39.1368 151.297 38.7611 151.766 38.7611C152.235 38.7611 152.616 39.1368 152.616 39.6003C152.616 40.0637 152.235 40.4395 151.766 40.4395C151.297 40.4395 150.917 40.0637 150.917 39.6003Z" fill="white"/>
</svg>
