<svg width="20" height="20" viewBox="0 0 20 20" fill="none" xmlns="http://www.w3.org/2000/svg">
<path d="M18.4548 2.62083C18.1548 2.36643 17.6836 2.33003 17.1964 2.52563H17.1956C16.6832 2.73123 2.6912 8.73283 2.1216 8.97803C2.018 9.01403 1.1132 9.35163 1.2064 10.1036C1.2896 10.7816 2.0168 11.0624 2.1056 11.0948L5.6628 12.3128C5.8988 13.0984 6.7688 15.9968 6.9612 16.616C7.0812 17.002 7.2768 17.5092 7.6196 17.6136C7.9204 17.7296 8.2196 17.6236 8.4132 17.4716L10.588 15.4544L14.0988 18.1924L14.1824 18.2424C14.4208 18.348 14.6492 18.4008 14.8672 18.4008C15.0356 18.4008 15.1972 18.3692 15.3516 18.306C15.8776 18.09 16.088 17.5888 16.11 17.532L18.7324 3.90123C18.8924 3.17323 18.67 2.80283 18.4548 2.62083ZM8.8 12.8L7.6 16L6.4 12L15.6 5.20003L8.8 12.8Z" fill="white"/>
</svg>
