<svg width="20" height="12" viewBox="0 0 20 12" fill="none" xmlns="http://www.w3.org/2000/svg">
<path d="M10.9679 11.9947C11.4754 11.9947 11.6828 11.6467 11.677 11.2104C11.6512 9.5673 12.272 8.68274 13.3928 9.83559C14.6327 11.111 14.8894 11.9947 16.3951 11.9947H19.0617C19.735 11.9947 20 11.7718 20 11.4221C20 10.6824 18.8159 9.37702 17.8126 8.41875C16.4076 7.07734 16.3418 7.04562 17.5518 5.43079C19.0525 3.42596 21.0158 0.857132 19.2792 0.857132H15.9618C15.3185 0.857132 15.2719 1.22998 15.0427 1.78541C14.2136 3.79709 12.6378 6.40277 12.0395 6.00421C11.4137 5.5885 11.7003 3.94195 11.7478 1.49484C11.7603 0.84856 11.757 0.405423 10.7971 0.175712C10.2729 0.0514278 9.76293 0 9.28961 0C7.39552 0 6.08891 0.816846 6.83138 0.95913C8.14049 1.21027 8.01467 4.12366 7.70968 5.38193C7.17803 7.57276 5.17978 3.6471 4.34732 1.69198C4.14649 1.22227 4.08483 0.857132 3.36819 0.857132H0.655806C0.245823 0.857132 0 0.994273 0 1.29941C0 1.8154 2.46656 7.05934 4.82147 9.67359C7.11804 12.2236 9.38794 11.9947 10.9679 11.9947Z" fill="white"/>
</svg>
