<svg width="448" height="120" viewBox="0 0 448 120" fill="none" xmlns="http://www.w3.org/2000/svg">
<mask id="mask0_3_22" style="mask-type:alpha" maskUnits="userSpaceOnUse" x="0" y="0" width="448" height="120">
<rect width="448" height="120" fill="#C4C4C4"/>
</mask>
<g mask="url(#mask0_3_22)">
<path d="M78.6388 28.06V37.536H88.5748V72.864C88.5748 79.488 84.8948 82.156 78.3628 82.156H76.5228V92H78.4548C92.5308 92 99.2468 84.64 99.2468 73.14V28.06H78.6388ZM119.535 28.06H108.863V82.248C108.863 88.964 112.451 92.46 119.535 92.46H129.379C136.463 92.46 140.051 88.964 140.051 82.248V28.06H129.379V83.168H119.535V28.06ZM161.259 81.604H160.707V28.06H150.035V92H155.279C172.023 92 181.315 83.26 181.315 67.528V28.06H170.643V67.16C170.643 75.164 166.871 81.604 161.259 81.604ZM216.152 37.812L214.312 28.06H190.576V92H215.048L216.888 82.248H201.248V64.124H211.736L213.576 54.74H201.248V37.812H216.152ZM245.441 51.612H244.797L234.677 28.06H224.649V92H234.861V48.392H235.413L245.441 70.196V92H255.653V28.06H245.441V51.612ZM290.661 28.06H263.061L261.221 38.088H271.525V92H282.197V38.088H292.501L290.661 28.06ZM308.674 28.06H298.002V82.248C298.002 88.964 301.59 92.46 308.674 92.46H318.518C325.602 92.46 329.19 88.964 329.19 82.248V28.06H318.518V83.168H308.674V28.06ZM338.254 70.84V82.892C338.254 89.7 341.842 92.46 348.926 92.46H358.126C363.738 92.46 368.154 89.792 368.154 82.984V70.472C368.154 65.412 365.946 61.732 361.898 59.064L352.79 53.084C349.662 51.06 348.65 49.128 348.65 45.908V36.248H357.666V50.6L368.062 47.84V37.812C368.062 31.096 365.302 27.6 358.218 27.6H348.374C342.946 27.6 338.53 31.188 338.53 37.904V49.864C338.53 53.36 340.186 57.5 343.958 59.984L353.526 66.332C356.838 68.54 357.85 70.38 357.85 74.704V83.536H348.742V70.84H338.254Z" fill="white"/>
</g>
</svg>
