<svg width="129" height="66" viewBox="0 0 129 66" fill="none" xmlns="http://www.w3.org/2000/svg">
<g clip-path="url(#clip0_3_65)">
<path d="M62.2598 0.124023V11.7674C62.2598 14.6938 60.5406 16.624 56.9794 16.624H56.4882V14.0712H56.918C58.5758 14.0712 59.5582 13.3863 59.5582 11.6429V2.55233H56.9794V0.124023H62.2598Z" fill="white"/>
<path d="M67.172 14.3203H69.6893V0.124023H72.3909V14.0712C72.3909 15.8146 71.4699 16.7486 69.6893 16.7486H67.172C65.3914 16.7486 64.4704 15.8146 64.4704 14.0712V0.124023H67.172V14.3203Z" fill="white"/>
<path d="M79.9423 10.2108V0.124023H82.6438V10.2731C82.6438 14.3202 80.3107 16.624 76.0741 16.624H74.7233V0.124023H77.4249V13.9467H77.5477C78.9599 13.9467 79.9423 12.2655 79.9423 10.2108Z" fill="white"/>
<path d="M87.4951 2.61459V6.97308H90.6265L90.1967 9.40138H87.4951V14.0712H91.4861L90.9949 16.624H84.7936V0.124023H90.8107L91.3019 2.61459H87.4951Z" fill="white"/>
<path d="M98.486 0.124023H101.126V16.624H98.486V10.958L95.9686 5.35421H95.7844V16.624H93.2057V0.124023H95.7844L98.3632 6.16365H98.486V0.124023Z" fill="white"/>
<path d="M110.212 2.67685H107.633V16.624H104.932V2.67685H102.292L102.783 0.124023H109.782L110.212 2.67685Z" fill="white"/>
<path d="M114.142 14.3203H116.598V0.124023H119.361V14.0712C119.361 15.8146 118.44 16.7486 116.598 16.7486H114.142C112.3 16.7486 111.379 15.8146 111.379 14.0712V0.124023H114.142V14.3203Z" fill="white"/>
<path d="M124.088 11.1453V14.4453H126.421V12.1415C126.458 11.7096 126.374 11.276 126.178 10.8905C125.983 10.505 125.684 10.1833 125.316 9.96227L122.86 8.3434C122.439 8.0549 122.095 7.66495 121.86 7.20854C121.624 6.75212 121.504 6.24351 121.509 5.7283V2.67736C121.509 0.933963 122.615 0 123.965 0H126.483C128.325 0 129 0.871698 129 2.61509V5.23019L126.36 5.9151V2.24151H124.088V4.73208C124.068 5.112 124.156 5.48979 124.341 5.8208C124.526 6.15182 124.8 6.4222 125.132 6.6L127.404 8.09434C127.908 8.40377 128.321 8.84376 128.602 9.36905C128.882 9.89434 129.02 10.486 129 11.083V14.2585C129 16.0642 127.895 16.7491 126.483 16.7491H124.15C122.308 16.7491 121.448 16.0019 121.448 14.2585V11.1453H124.088Z" fill="white"/>
<path d="M62.3213 26.1517H59.8653V33.4366H62.3213V26.1517ZM65.0229 26.463V40.4102H62.3213V35.8026H59.8653V40.4102H57.1638V26.4007C57.1638 24.6573 58.0847 23.7856 59.8653 23.7856H62.3213C64.1019 23.7856 65.0229 24.7196 65.0229 26.463Z" fill="white"/>
<path d="M72.39 33.5611H75.0302V37.8573C75.0302 39.6007 74.1092 40.4724 72.3286 40.4724H69.9955C68.2149 40.4724 67.2939 39.6007 67.2939 37.8573V26.4007C67.2939 24.6573 68.2149 23.7856 69.9955 23.7856H72.2672C74.1092 23.7856 74.9688 24.6573 74.9688 26.4007V30.3234H72.3286V26.1517H69.9955V38.0441H72.39V33.5611Z" fill="white"/>
<path d="M82.2146 26.1517H79.82V33.4366H82.2146V26.1517ZM84.9776 26.463V40.4102H82.2146V35.8026H79.82V40.4102H77.1185V26.4007C77.1185 24.6573 78.0395 23.7856 79.82 23.7856H82.2146C84.0566 23.7856 84.9776 24.7196 84.9776 26.463Z" fill="white"/>
<path d="M90.0115 38.1682H92.3447V26.1512H90.0115V38.1682ZM95.0462 26.5248V37.7323C95.0462 39.4134 94.1252 40.4097 92.3447 40.4097H87.2485V23.9097H92.3447C94.1252 23.9097 95.0462 24.7814 95.0462 26.5248Z" fill="white"/>
<path d="M100.02 26.4002V30.7587H103.152L102.722 33.187H100.02V37.8568H104.011L103.52 40.4097H97.3188V23.9097H103.336L103.827 26.4002H100.02Z" fill="white"/>
<path d="M108.248 28.6417L108.432 32.4399V40.4097H105.731V23.9097H108.924L110.888 30.6342H111.011L112.915 23.9097H116.107V40.4097H113.467V32.5644L113.59 28.6417H113.406L111.809 34.1833H110.09L108.494 28.6417H108.248Z" fill="white"/>
<path d="M125.931 23.9097V33.2493C125.931 34.8682 125.133 35.8021 123.414 35.8644V40.4097H120.712V35.8644C118.993 35.8229 118.133 34.9512 118.133 33.2493V23.9097H120.835V33.4361H123.229V23.9097H125.931Z" fill="white"/>
<path d="M24.6825 0.124023H0V7.40893H16.3936V30.8825C16.3936 41.5919 15.7182 42.5882 1.96478 48.8769C3.0058 51.4186 4.41282 53.7897 6.13993 55.9127C21.674 48.8769 24.6825 45.2655 24.6825 33.124V0.124023ZM32.603 34.7429C32.603 50.6825 25.9105 54.7297 12.4027 61.5165C14.9759 63.2018 17.6637 64.6999 20.446 65.9995C30.8839 61.0184 40.9534 54.4184 40.9534 36.9844V0.124023H32.603V34.7429Z" fill="white"/>
<path d="M59.3729 51.8038H59.2501L59.3729 54.7924V64.2566H57.5923V47.8188H59.3729L61.9517 54.917H62.0131L64.6533 47.8188H66.3725V64.2566H64.6533V51.8038H64.5919L62.5657 57.283H61.3991L59.3729 51.8038Z" fill="#FFFEFE"/>
<path d="M73.4942 64.3816H71.0383C69.6261 64.3816 68.8893 63.6967 68.8893 62.3892V49.7495C68.8893 48.3797 69.6261 47.6948 71.0383 47.6948H73.4942C74.9064 47.6948 75.5818 48.3797 75.5818 49.7495V62.3892C75.5818 63.6967 74.9064 64.3816 73.4942 64.3816ZM73.8012 62.825V49.2514H70.6699V62.825H73.8012Z" fill="#FFFEFE"/>
<path d="M79.6961 58.5907V62.8246H82.7661V59.4001C82.7731 59.0842 82.7316 58.7691 82.6433 58.4662C82.4886 58.2134 82.2785 58.0003 82.0293 57.8435L79.0207 55.0416C78.6547 54.7898 78.3587 54.4467 78.1611 54.0454C77.9796 53.6793 77.895 53.2716 77.9155 52.8624V49.7492C77.8974 49.4746 77.9374 49.1993 78.0328 48.9416C78.1282 48.684 78.2769 48.4501 78.4688 48.2555C78.6607 48.0609 78.8913 47.9102 79.1454 47.8134C79.3994 47.7166 79.6709 47.6761 79.9417 47.6945H82.3977C82.9529 47.6587 83.501 47.8365 83.9326 48.1926C84.2785 48.6331 84.4532 49.1869 84.4238 49.7492V53.4228L82.7047 53.8586V49.2511H79.5733V52.4265C79.5613 52.7083 79.6249 52.9881 79.7575 53.236C79.8891 53.486 80.0787 53.6997 80.3101 53.8586L83.3187 56.4737C83.6953 56.7823 84.0083 57.1631 84.2396 57.5945C84.4503 57.9741 84.5563 58.4042 84.5466 58.8397V62.4511C84.5642 62.7163 84.5237 62.9822 84.4282 63.2297C84.3327 63.4773 84.1844 63.7004 83.994 63.8831C83.7835 64.0652 83.5394 64.203 83.2759 64.2885C83.0124 64.374 82.7347 64.4055 82.4591 64.3812H80.0645C79.4977 64.4384 78.93 64.2834 78.4681 63.9454C78.2729 63.7532 78.1221 63.5195 78.0265 63.2611C77.931 63.0027 77.8931 62.7261 77.9155 62.4511V58.5907H79.6961Z" fill="#FFFEFE"/>
<path d="M91.6695 57.4703H93.3886V62.3892C93.3886 63.6967 92.7133 64.3816 91.2397 64.3816H88.9065C87.4943 64.3816 86.8189 63.6967 86.8189 62.3892V49.7495C86.8189 48.3797 87.4943 47.6948 88.9065 47.6948H91.2397C92.6519 47.6948 93.3886 48.3797 93.3886 49.7495V54.2948H91.6081V49.3137H88.5995V62.7627H91.6695V57.4703Z" fill="#FFFEFE"/>
<path d="M100.326 64.3816H97.8697C96.4575 64.3816 95.7207 63.6967 95.7207 62.3892V49.7495C95.7207 48.3797 96.4575 47.6948 97.8697 47.6948H100.326C101.738 47.6948 102.413 48.3797 102.413 49.7495V62.3892C102.413 63.6967 101.738 64.3816 100.326 64.3816ZM100.633 62.825V49.2514H97.5013V62.825H100.633Z" fill="#FFFEFE"/>
<path d="M104.931 47.8188H106.65V62.7H109.536V47.8188H111.255V62.7H114.141V47.8188H115.922V62.3264C115.922 63.6962 115.185 64.3811 113.773 64.3811H112.115C111.75 64.4088 111.386 64.3219 111.071 64.1321C110.754 63.9012 110.518 63.5741 110.396 63.1981H110.334C110.243 63.5556 110.024 63.8662 109.72 64.0698C109.419 64.2943 109.05 64.4045 108.677 64.3811H107.019C105.607 64.3811 104.931 63.6962 104.931 62.3264V47.8188Z" fill="#FFFEFE"/>
</g>
<defs>
<clipPath id="clip0_3_65">
<rect width="129" height="66" fill="white"/>
</clipPath>
</defs>
</svg>
